<!--?xml version="1.0" standalone="no"?-->
              <svg id="sw-js-blob-svg" viewBox="0 0 100 100" xmlns="http://www.w3.org/2000/svg" version="1.1">
                    <defs> 
                        <linearGradient id="sw-gradient" x1="0" x2="1" y1="1" y2="0">
                            <stop id="stop1" stop-color="rgba(255, 255, 255, 1)" offset="0%"></stop>
                            <stop id="stop2" stop-color="rgba(255, 255, 255, 1)" offset="100%"></stop>
                        </linearGradient>
                    </defs>
                <path fill="url(#sw-gradient)" d="M13.7,-20.2C20.3,-20,29.7,-21.3,32.9,-18.2C36.2,-15.1,33.2,-7.5,29.9,-1.9C26.5,3.7,22.8,7.4,20.4,11.9C18,16.5,16.9,22,13.7,24.1C10.6,26.2,5.3,25.1,0.5,24.1C-4.2,23.2,-8.4,22.5,-11.1,20.1C-13.9,17.7,-15.2,13.6,-19.2,10C-23.1,6.4,-29.6,3.2,-28.3,0.8C-27,-1.7,-17.8,-3.3,-15.1,-9.1C-12.4,-14.8,-16.2,-24.7,-14.7,-27.8C-13.3,-31,-6.7,-27.4,-1.5,-24.8C3.6,-22.1,7.2,-20.4,13.7,-20.2Z" width="100%" height="100%" transform="translate(50 50)" stroke-width="0" style="transition: 0.3s;" stroke="url(#sw-gradient)"></path>
              </svg>